<?xml version="1.0" encoding="utf-8"?>
<!-- Generator: Adobe Illustrator 24.0.1, SVG Export Plug-In . SVG Version: 6.00 Build 0)  -->
<svg version="1.1" id="Livello_1" xmlns="http://www.w3.org/2000/svg" xmlns:xlink="http://www.w3.org/1999/xlink" x="0px" y="0px"
	 viewBox="0 0 300 300" style="enable-background:new 0 0 300 300;" xml:space="preserve">
<style type="text/css">
	.st0{fill:#205976;}
	.st1{fill:#C3DB99;}
</style>
<g>
	<g>
		<path class="st0" d="M59.8,112c0.2,0.9,0.4,1.9,0.6,2.8c4,16.6,12.5,31.8,24.6,43.9c0.1,0.1,0.2,0.2,0.3,0.3
			c1.3,1.3,2.6,2.5,3.9,3.7c1.4,1.2,2.7,2.4,4.1,3.4c2.8,2.2,5.7,4.3,8.7,6.1l0.2,0.2h0c8.5,5.3,17.7,9.1,27.3,11.4l0.2,0.1
			c7.1,1.7,14.4,2.5,21.7,2.5c6.9,0,13.8-0.8,20.4-2.2c-2,9.6-10.5,16.7-20.4,16.7h-27.1c-12.6,0-22.9,10.3-22.9,22.9v45.1
			c-3.6-8-11.6-13.5-20.9-13.5c-9.3,0-17.3,5.6-20.9,13.5V112z"/>
		<path class="st0" d="M60.8,120c4.5,14.8,12.5,28.4,23.5,39.5c0.1,0.1,0.2,0.2,0.2,0.2l0,0l0,0c1.2,1.2,2.6,2.5,3.9,3.7
			c1.4,1.2,2.8,2.4,4.1,3.5c2.8,2.2,5.8,4.3,8.8,6.2l0.5,0.3h0c8.5,5.2,17.7,9,27.4,11.4l0.2,0.1c7.1,1.7,14.5,2.6,21.9,2.6
			c6.4,0,12.9-0.6,19.1-1.9c-2.4,8.3-10.2,14.3-19.1,14.3h-27.1c-13.2,0-23.9,10.7-23.9,23.9v41.2c-4.3-6.4-11.6-10.7-19.9-10.7
			c-8.3,0-15.6,4.2-19.9,10.7V120 M58.8,92.7v185.4c0-12.1,9.8-21.9,21.9-21.9c12.1,0,21.9,9.8,21.9,21.9v-54.4
			c0-12.1,9.8-21.9,21.9-21.9h27.1c11.1,0,20.3-8.3,21.7-19c-0.1,0-0.2,0-0.2,0.1c-6.9,1.6-14.1,2.5-21.5,2.5
			c-7.4,0-14.6-0.9-21.5-2.5c-0.1,0-0.2,0-0.2-0.1c-9.8-2.3-18.9-6.2-27.2-11.4h0c-3-1.9-5.9-3.9-8.6-6.1c-1.4-1.1-2.7-2.2-4-3.4
			c-1.3-1.2-2.6-2.4-3.8-3.6c-0.1-0.1-0.2-0.2-0.3-0.3c-11.7-11.8-20.3-26.8-24.3-43.5C59.7,107.6,58.8,100.3,58.8,92.7L58.8,92.7z"
			/>
	</g>
	<g>
		<path class="st1" d="M151.6,184.4c-7.2,0-14.3-0.8-21.2-2.5l-0.2-0.1c-9.5-2.3-18.6-6.1-27-11.3l-0.2-0.2h0
			c-2.9-1.8-5.7-3.8-8.3-5.9c-1.3-1-2.7-2.2-4-3.4c-1.3-1.2-2.6-2.4-3.8-3.6c-0.1-0.1-0.2-0.2-0.3-0.3c-11.8-11.9-20.1-26.8-24.1-43
			c-1.7-7-2.6-14.3-2.6-21.6C59.8,42.1,101,1,151.6,1c50.6,0,91.7,41.1,91.7,91.7c0,7.1-0.8,14.1-2.4,20.9H124.5
			c-1.3,0-2.5,0.1-3.8,0.3c-6.9,1.2-12.9,5.5-16.2,11.7l-0.2,0.2l0,0.2c-1.6,3.2-2.5,6.8-2.5,10.4c0,9,5.3,17.2,13.6,20.8
			c0.6,0.3,1.2,0.5,1.6,0.6c0.6,0.2,1.2,0.4,1.8,0.6l0.1,0c0.3,0.1,0.7,0.2,1,0.2c1.5,0.3,3,0.5,4.6,0.5h27.1
			c11.5,0,20.9,9.4,20.9,20.9c0,0.7,0,1.4-0.1,2.1C165.6,183.6,158.6,184.4,151.6,184.4z M151.8,34.4c-23.7,0-44.8,14.1-53.9,36
			l-0.6,1.4h108.9l-0.6-1.4C196.6,48.6,175.5,34.4,151.8,34.4z"/>
		<path class="st0" d="M151.6,2c50,0,90.7,40.7,90.7,90.7c0,6.7-0.7,13.4-2.2,19.9H124.5c-1.3,0-2.6,0.1-4,0.3
			c-7.1,1.2-13.4,5.7-16.9,12.1l-0.4,0.4v0.3c-1.6,3.3-2.5,6.9-2.5,10.6c0,9.4,5.6,17.9,14.1,21.7c0.6,0.3,1.2,0.5,1.7,0.7
			c0.6,0.2,1.3,0.4,1.9,0.6l0.1,0l0.1,0c0.4,0.1,0.7,0.2,1.1,0.2c1.6,0.3,3.2,0.5,4.8,0.5h27.1c11,0,19.9,8.9,19.9,19.9
			c0,0.4,0,0.9,0,1.3c-6.5,1.4-13.1,2.2-19.8,2.2c-7.1,0-14.2-0.8-21-2.4l-0.1,0l-0.1,0c-9.4-2.2-18.4-6-26.7-11.2l-0.4-0.2
			c-2.8-1.8-5.5-3.7-8.1-5.7c-1.3-1-2.6-2.1-4-3.3c-1.3-1.2-2.6-2.3-3.7-3.5c-0.1-0.1-0.2-0.2-0.3-0.3
			c-11.7-11.8-19.9-26.5-23.8-42.5c-1.7-7-2.5-14.2-2.5-21.4C60.8,42.7,101.5,2,151.6,2 M95.8,72.8h3h105.9h3l-1.1-2.8
			c-9.2-22.3-30.7-36.6-54.8-36.6c-24.1,0-45.6,14.4-54.8,36.6L95.8,72.8 M151.6,0c-51.2,0-92.7,41.5-92.7,92.7
			c0,7.5,0.9,14.9,2.6,21.9c4.1,16.7,12.6,31.7,24.3,43.5c0.1,0.1,0.2,0.2,0.3,0.3c1.2,1.2,2.5,2.4,3.8,3.6c1.3,1.2,2.7,2.3,4,3.4
			c2.8,2.2,5.6,4.2,8.6,6.1h0c8.3,5.2,17.5,9.1,27.3,11.4c0.1,0,0.2,0,0.2,0.1c6.9,1.6,14.1,2.5,21.5,2.5c7.4,0,14.6-0.9,21.5-2.5
			c0.1,0,0.1,0,0.2-0.1c0.1-1,0.2-1.9,0.2-2.9c0-12.1-9.8-21.9-21.9-21.9h-27.1c-1.5,0-3-0.2-4.4-0.4c-0.3-0.1-0.6-0.1-1-0.2
			c0,0-0.1,0-0.1,0c-0.6-0.2-1.2-0.3-1.7-0.5c-0.5-0.2-1.1-0.4-1.6-0.6c-7.6-3.4-13-11-13-19.9c0-3.7,0.9-7.1,2.5-10.1c0,0,0,0,0,0
			c3.1-5.9,8.8-10.1,15.6-11.3c1.2-0.2,2.4-0.3,3.7-0.3h117.2c1.7-7,2.6-14.3,2.6-21.9C244.3,41.5,202.8,0,151.6,0L151.6,0z
			 M98.8,70.8c8.6-20.8,29.1-35.4,53-35.4c23.9,0,44.4,14.6,53,35.4H98.8L98.8,70.8z"/>
	</g>
	<g>
		<path class="st1" d="M80.7,299c-11.5,0-20.9-9.4-20.9-20.9c0-11.5,9.4-20.9,20.9-20.9c11.5,0,20.9,9.4,20.9,20.9
			C101.6,289.6,92.2,299,80.7,299z"/>
		<g>
			<path class="st0" d="M80.7,258.2c11,0,19.9,8.9,19.9,19.9c0,11-8.9,19.9-19.9,19.9c-11,0-19.9-8.9-19.9-19.9
				C60.8,267.1,69.8,258.2,80.7,258.2 M80.7,256.2c-12.1,0-21.9,9.8-21.9,21.9c0,12.1,9.8,21.9,21.9,21.9c12.1,0,21.9-9.8,21.9-21.9
				C102.6,266,92.8,256.2,80.7,256.2L80.7,256.2z"/>
		</g>
	</g>
</g>
</svg>
