<?xml version="1.0" encoding="utf-8"?>
<!-- Generator: Adobe Illustrator 24.0.1, SVG Export Plug-In . SVG Version: 6.00 Build 0)  -->
<svg version="1.1" id="Livello_1" xmlns="http://www.w3.org/2000/svg" xmlns:xlink="http://www.w3.org/1999/xlink" x="0px" y="0px"
	 viewBox="0 0 300 300" style="enable-background:new 0 0 300 300;" xml:space="preserve">
<style type="text/css">
	.st0{fill:#077B6B;}
	.st1{fill:#D84429;stroke:#4B2B18;stroke-width:4;stroke-miterlimit:10;}
	.st2{fill:#D84429;}
	.st3{fill:url(#SVGID_1_);}
	.st4{fill:#DFF0EE;}
	.st5{fill:url(#SVGID_2_);}
	.st6{fill:url(#SVGID_3_);}
	.st7{fill:url(#SVGID_4_);}
	.st8{fill:url(#SVGID_5_);}
	.st9{fill:url(#SVGID_6_);}
	.st10{fill:url(#SVGID_7_);}
</style>
<g>
	<g>
		<path class="st0" d="M-1923.6-1012.8h23.7v53.3c0,11.1-2.6,20-7.9,26.6c-6.7,8.4-15.9,12.5-27.7,12.5c-3.6,0-7.6-0.8-12.1-2.3
			V-945c4,1.9,7.3,2.8,10.1,2.8c9.4,0,14-6.9,14-20.7V-1012.8z M-1912.4-1041c3.2,0,6,1.1,8.3,3.4c2.3,2.3,3.5,4.9,3.5,8
			c0,3.3-1.1,6-3.3,8.1c-2.2,2.1-5.1,3.2-8.5,3.2c-3.5,0-6.3-1.1-8.5-3.2c-2.2-2.1-3.3-4.8-3.3-8.1c0-3.1,1.2-5.7,3.5-8
			C-1918.4-1039.8-1915.6-1041-1912.4-1041z"/>
	</g>
	<g>
		<path class="st0" d="M-1900-1012.9v51.7c0,8.4,3,12.6,9,12.6c2.6,0,4.8-0.9,6.6-2.6c1.8-1.7,2.7-3.9,2.7-6.4
			c0-2.6-0.8-4.7-2.5-6.5c-1.7-1.7-3.8-2.6-6.2-2.6c-1.7,0-3.7,0.8-5.9,2.3v-26.1c2.8-0.3,4.9-0.4,6.3-0.4c8.9,0,16.5,3.2,22.9,9.6
			c6.3,6.4,9.5,14.1,9.5,23.2c0,9.2-3.2,17-9.7,23.3c-6.5,6.3-14.4,9.5-23.8,9.5c-4.7,0-9.3-1-13.8-3.1c-4.5-2.1-8.2-4.9-11.1-8.4
			c-5.1-6.1-7.6-13.9-7.6-23.6v-52.6H-1900z"/>
	</g>
</g>
<g>
	<g>
		<path class="st1" d="M-1838.1-876.5h23.7v53.3c0,11.1-2.6,20-7.9,26.6c-6.7,8.4-15.9,12.5-27.7,12.5c-3.6,0-7.6-0.8-12.1-2.3
			v-22.3c4,1.9,7.3,2.8,10.1,2.8c9.4,0,14-6.9,14-20.7V-876.5z M-1826.9-904.6c3.2,0,6,1.1,8.3,3.4c2.3,2.3,3.5,4.9,3.5,8
			c0,3.3-1.1,6-3.3,8.1c-2.2,2.1-5.1,3.2-8.5,3.2c-3.5,0-6.3-1.1-8.5-3.2c-2.2-2.1-3.3-4.8-3.3-8.1c0-3.1,1.2-5.7,3.5-8
			C-1832.9-903.5-1830.2-904.6-1826.9-904.6z"/>
	</g>
	<g>
		<path class="st1" d="M-1814.5-876.5v51.7c0,8.4,3,12.6,9,12.6c2.6,0,4.8-0.9,6.6-2.6c1.8-1.7,2.7-3.9,2.7-6.4
			c0-2.6-0.8-4.7-2.5-6.5c-1.7-1.7-3.8-2.6-6.2-2.6c-1.7,0-3.7,0.8-5.9,2.3v-26.1c2.8-0.3,4.9-0.4,6.3-0.4c8.9,0,16.5,3.2,22.9,9.6
			c6.3,6.4,9.5,14.1,9.5,23.2c0,9.2-3.2,17-9.7,23.3c-6.5,6.3-14.4,9.5-23.8,9.5c-4.7,0-9.3-1-13.8-3.1c-4.5-2.1-8.2-4.9-11.1-8.4
			c-5.1-6.1-7.6-13.9-7.6-23.6v-52.6H-1814.5z"/>
	</g>
</g>
<g>
	<g>
		<path class="st2" d="M-1763.1-1012.8h23.7v53.3c0,11.1-2.6,20-7.9,26.6c-6.7,8.4-15.9,12.5-27.7,12.5c-3.6,0-7.6-0.8-12.1-2.3
			V-945c4,1.9,7.3,2.8,10.1,2.8c9.4,0,14-6.9,14-20.7V-1012.8z M-1751.9-1041c3.2,0,6,1.1,8.3,3.4c2.3,2.3,3.5,4.9,3.5,8
			c0,3.3-1.1,6-3.3,8.1c-2.2,2.1-5.1,3.2-8.5,3.2c-3.5,0-6.3-1.1-8.5-3.2c-2.2-2.1-3.3-4.8-3.3-8.1c0-3.1,1.2-5.7,3.5-8
			C-1757.9-1039.8-1755.1-1041-1751.9-1041z"/>
	</g>
	<g>
		<path class="st2" d="M-1739.5-1012.9v51.7c0,8.4,3,12.6,9,12.6c2.6,0,4.8-0.9,6.6-2.6c1.8-1.7,2.7-3.9,2.7-6.4
			c0-2.6-0.8-4.7-2.5-6.5c-1.7-1.7-3.8-2.6-6.2-2.6c-1.7,0-3.7,0.8-5.9,2.3v-26.1c2.8-0.3,4.9-0.4,6.3-0.4c8.9,0,16.5,3.2,22.9,9.6
			c6.3,6.4,9.5,14.1,9.5,23.2c0,9.2-3.2,17-9.7,23.3c-6.5,6.3-14.4,9.5-23.8,9.5c-4.7,0-9.3-1-13.8-3.1c-4.5-2.1-8.2-4.9-11.1-8.4
			c-5.1-6.1-7.6-13.9-7.6-23.6v-52.6H-1739.5z"/>
	</g>
</g>
<linearGradient id="SVGID_1_" gradientUnits="userSpaceOnUse" x1="-1661.6852" y1="-993.1749" x2="-1337.4913" y2="-806.0015">
	<stop  offset="0" style="stop-color:#E28F69"/>
	<stop  offset="3.653409e-02" style="stop-color:#E1855F"/>
	<stop  offset="0.1544" style="stop-color:#DD6A46"/>
	<stop  offset="0.2696" style="stop-color:#DB5535"/>
	<stop  offset="0.3798" style="stop-color:#D9482C"/>
	<stop  offset="0.4797" style="stop-color:#D84429"/>
	<stop  offset="1" style="stop-color:#A4332A"/>
</linearGradient>
<path class="st3" d="M-1399.2-749.2H-1600c-27.6,0-50-22.4-50-50V-1000c0-27.6,22.4-50,50-50h200.8c27.6,0,50,22.4,50,50v200.8
	C-1349.2-771.6-1371.6-749.2-1399.2-749.2z"/>
<g>
	<g>
		<path class="st4" d="M-1534.7-959.9h44.1v99.3c0,20.8-4.9,37.3-14.7,49.5c-12.5,15.6-29.7,23.4-51.7,23.4
			c-6.7,0-14.2-1.4-22.7-4.2v-41.6c7.4,3.5,13.6,5.2,18.8,5.2c17.5,0,26.2-12.9,26.2-38.6V-959.9z M-1513.9-1012.4
			c6,0,11.1,2.1,15.5,6.3c4.4,4.2,6.5,9.2,6.5,14.9c0,6.1-2.1,11.2-6.2,15.1c-4.1,3.9-9.4,5.9-15.9,5.9c-6.5,0-11.7-2-15.9-5.9
			c-4.1-3.9-6.2-9-6.2-15.1c0-5.7,2.2-10.7,6.5-14.9C-1525.1-1010.3-1519.9-1012.4-1513.9-1012.4z"/>
	</g>
	<g>
		<path class="st4" d="M-1490.7-960v96.4c0,15.7,5.6,23.5,16.9,23.5c4.8,0,8.9-1.6,12.2-4.9c3.3-3.3,5-7.2,5-11.9
			c0-4.8-1.6-8.8-4.7-12.1c-3.1-3.3-7-4.9-11.6-4.9c-3.2,0-6.9,1.4-11.1,4.2v-48.6c5.2-0.5,9.1-0.7,11.8-0.7
			c16.6,0,30.8,6,42.6,17.9c11.8,12,17.8,26.3,17.8,43.2c0,17.2-6,31.7-18.1,43.5c-12,11.8-26.8,17.7-44.4,17.7
			c-8.8,0-17.4-1.9-25.8-5.8c-8.4-3.9-15.3-9-20.7-15.6c-9.4-11.3-14.2-26-14.2-44v-98H-1490.7z"/>
	</g>
</g>
<linearGradient id="SVGID_2_" gradientUnits="userSpaceOnUse" x1="-1340.5569" y1="-993.5867" x2="-1016.3631" y2="-806.4133">
	<stop  offset="0" style="stop-color:#D0776C"/>
	<stop  offset="0.4797" style="stop-color:#B33B38"/>
	<stop  offset="0.5704" style="stop-color:#A63330"/>
	<stop  offset="1" style="stop-color:#6C1510"/>
</linearGradient>
<path class="st5" d="M-1078-749.6h-200.8c-27.6,0-50-22.4-50-50v-200.8c0-27.6,22.4-50,50-50h200.8c27.6,0,50,22.4,50,50v200.8
	C-1028-772-1050.4-749.6-1078-749.6z"/>
<g>
	<g>
		<path class="st4" d="M-1217.4-959.9h44.1v99.3c0,20.8-4.9,37.3-14.7,49.5c-12.5,15.6-29.7,23.4-51.7,23.4
			c-6.7,0-14.2-1.4-22.7-4.2v-41.6c7.4,3.5,13.6,5.2,18.8,5.2c17.5,0,26.2-12.9,26.2-38.6V-959.9z M-1196.7-1012.4
			c6,0,11.1,2.1,15.5,6.3c4.4,4.2,6.5,9.2,6.5,14.9c0,6.1-2.1,11.2-6.2,15.1c-4.1,3.9-9.4,5.9-15.9,5.9c-6.5,0-11.7-2-15.9-5.9
			c-4.1-3.9-6.2-9-6.2-15.1c0-5.7,2.2-10.7,6.5-14.9C-1207.8-1010.3-1202.6-1012.4-1196.7-1012.4z"/>
	</g>
	<g>
		<path class="st4" d="M-1173.5-960v96.4c0,15.7,5.6,23.5,16.9,23.5c4.8,0,8.9-1.6,12.2-4.9c3.3-3.3,5-7.2,5-11.9
			c0-4.8-1.6-8.8-4.7-12.1c-3.1-3.3-7-4.9-11.6-4.9c-3.2,0-6.9,1.4-11.1,4.2v-48.6c5.2-0.5,9.1-0.7,11.8-0.7
			c16.6,0,30.8,6,42.6,17.9c11.8,12,17.8,26.3,17.8,43.2c0,17.2-6,31.7-18.1,43.5c-12,11.8-26.8,17.7-44.4,17.7
			c-8.8,0-17.4-1.9-25.8-5.8c-8.4-3.9-15.3-9-20.7-15.6c-9.4-11.3-14.2-26-14.2-44v-98H-1173.5z"/>
	</g>
</g>
<linearGradient id="SVGID_3_" gradientUnits="userSpaceOnUse" x1="-1019.0169" y1="-993.5867" x2="-694.8231" y2="-806.4133">
	<stop  offset="1.331947e-07" style="stop-color:#EC6265"/>
	<stop  offset="3.103102e-02" style="stop-color:#E65E62"/>
	<stop  offset="0.3272" style="stop-color:#B83E4C"/>
	<stop  offset="0.5975" style="stop-color:#992C3E"/>
	<stop  offset="0.8307" style="stop-color:#882236"/>
	<stop  offset="1" style="stop-color:#821F33"/>
</linearGradient>
<path class="st6" d="M-756.5-749.6h-200.8c-27.6,0-50-22.4-50-50v-200.8c0-27.6,22.4-50,50-50h200.8c27.6,0,50,22.4,50,50v200.8
	C-706.5-772-728.9-749.6-756.5-749.6z"/>
<g>
	<g>
		<path class="st4" d="M-895.9-959.9h44.1v99.3c0,20.8-4.9,37.3-14.7,49.5c-12.5,15.6-29.7,23.4-51.7,23.4c-6.7,0-14.2-1.4-22.7-4.2
			v-41.6c7.4,3.5,13.6,5.2,18.8,5.2c17.5,0,26.2-12.9,26.2-38.6V-959.9z M-875.1-1012.4c6,0,11.1,2.1,15.5,6.3
			c4.4,4.2,6.5,9.2,6.5,14.9c0,6.1-2.1,11.2-6.2,15.1c-4.1,3.9-9.4,5.9-15.9,5.9c-6.5,0-11.7-2-15.9-5.9c-4.1-3.9-6.2-9-6.2-15.1
			c0-5.7,2.2-10.7,6.5-14.9C-886.3-1010.3-881.1-1012.4-875.1-1012.4z"/>
	</g>
	<g>
		<path class="st4" d="M-851.9-960v96.4c0,15.7,5.6,23.5,16.9,23.5c4.8,0,8.9-1.6,12.2-4.9c3.3-3.3,5-7.2,5-11.9
			c0-4.8-1.6-8.8-4.7-12.1c-3.1-3.3-7-4.9-11.6-4.9c-3.2,0-6.9,1.4-11.1,4.2v-48.6c5.2-0.5,9.1-0.7,11.8-0.7
			c16.6,0,30.8,6,42.6,17.9c11.8,12,17.8,26.3,17.8,43.2c0,17.2-6,31.7-18.1,43.5c-12,11.8-26.8,17.7-44.4,17.7
			c-8.8,0-17.4-1.9-25.8-5.8c-8.4-3.9-15.3-9-20.7-15.6c-9.4-11.3-14.2-26-14.2-44v-98H-851.9z"/>
	</g>
</g>
<linearGradient id="SVGID_4_" gradientUnits="userSpaceOnUse" x1="-1506.5865" y1="-585.2524" x2="-1236.0817" y2="-314.7476">
	<stop  offset="1.346364e-06" style="stop-color:#BD3F3F"/>
	<stop  offset="0.4544" style="stop-color:#922D2E"/>
	<stop  offset="0.811" style="stop-color:#772223"/>
	<stop  offset="1" style="stop-color:#6D1E1F"/>
</linearGradient>
<path class="st7" d="M-1271.5-300h-199.6c-27.6,0-50-22.4-50-50v-200c0-27.6,22.4-50,50-50h199.6c27.6,0,50,22.4,50,50v200
	C-1221.5-322.4-1243.9-300-1271.5-300z"/>
<g>
	<g>
		<path class="st4" d="M-1411.4-519.5h40.4c3.1,0,5.6,2.5,5.6,5.6v110.5c0,24.3-5.7,43.6-17.2,57.9c-14.6,18.2-34.8,27.3-60.4,27.3
			c-6.7,0-14.3-1.2-22.5-3.7c-2.4-0.7-4-2.9-4-5.4v-36.2c0-3.9,3.8-6.6,7.5-5.3c5.5,2,10.3,3,14.4,3c20.4,0,30.6-15,30.6-45.1
			v-103.1C-1417-517-1414.5-519.5-1411.4-519.5z M-1392.7-580.9c7,0,13,2.5,18.1,7.4c5.1,4.9,7.7,10.7,7.7,17.4
			c0,7.2-2.4,13.1-7.2,17.7c-4.8,4.6-11,6.9-18.6,6.9c-7.5,0-13.7-2.3-18.6-6.9c-4.8-4.6-7.2-10.5-7.2-17.7c0-6.7,2.6-12.5,7.7-17.4
			C-1405.7-578.4-1399.7-580.9-1392.7-580.9z"/>
	</g>
	<g>
		<path class="st4" d="M-1371.2-519.7c3.1,0,5.6,2.5,5.6,5.6V-407c0,18.3,6.6,27.5,19.7,27.5c5.6,0,10.4-1.9,14.3-5.7
			c3.9-3.8,5.9-8.4,5.9-13.9c0-5.6-1.8-10.3-5.5-14.1c-3.7-3.8-8.2-5.7-13.5-5.7c-1.7,0-3.5,0.3-5.5,1c-3.7,1.3-7.5-1.4-7.5-5.3
			v-42.4c0-2.9,2.3-5.4,5.2-5.6c3.6-0.3,6.4-0.4,8.6-0.4c19.4,0,36,7,49.9,21c13.8,14,20.8,30.8,20.8,50.5c0,20.1-7,37.1-21.1,50.9
			c-14.1,13.8-31.4,20.7-51.9,20.7c-10.3,0-20.3-2.3-30.1-6.8c-9.8-4.5-17.9-10.6-24.2-18.2c-11-13.2-16.6-30.4-16.6-51.5v-109
			c0-3.1,2.5-5.6,5.6-5.6H-1371.2z"/>
	</g>
</g>
<linearGradient id="SVGID_5_" gradientUnits="userSpaceOnUse" x1="14.7476" y1="14.7476" x2="285.2524" y2="285.2524">
	<stop  offset="1.346364e-06" style="stop-color:#BD3F3F"/>
	<stop  offset="0.4544" style="stop-color:#922D2E"/>
	<stop  offset="0.811" style="stop-color:#772223"/>
	<stop  offset="1" style="stop-color:#6D1E1F"/>
</linearGradient>
<path class="st8" d="M249.8,300H50.2c-27.6,0-50-22.4-50-50V50c0-27.6,22.4-50,50-50h199.6c27.6,0,50,22.4,50,50v200
	C299.8,277.6,277.4,300,249.8,300z"/>
<g>
	<g>
		<path class="st4" d="M78.3,277.9c-6.3,0-13.5-1.2-21.4-3.5c-0.7-0.2-1.1-0.8-1.1-1.5v-36.2c0-1,0.8-1.6,1.6-1.6
			c0.2,0,0.4,0,0.5,0.1c5.9,2.1,11.2,3.2,15.8,3.2c15.8,0,34.6-8.5,34.6-49.1V92.5c0-4.4,3.6-8,8-8h27.6c4.4,0,8,3.6,8,8v104.1
			c0,23.2-5.5,41.9-16.4,55.4C121.6,269.4,102.9,277.9,78.3,277.9z M128.6,64.5c-6.5,0-11.7-1.9-15.8-5.8c-4-3.8-6-8.7-6-14.8
			c0-5.6,2.1-10.4,6.4-14.6c4.4-4.2,9.4-6.3,15.4-6.3c6,0,11,2,15.4,6.3c4.3,4.2,6.4,8.9,6.4,14.6c0,6.1-2,10.9-6,14.8
			C140.3,62.6,135.2,64.5,128.6,64.5z"/>
	</g>
	<g>
		<path class="st4" d="M175,267.5c-9.7,0-19.2-2.2-28.5-6.4c-9.2-4.2-16.9-10-22.8-17.1c-10.4-12.4-15.6-28.9-15.6-48.9V92.5
			c0-4.4,3.6-8,8-8h27.6c4.4,0,8,3.6,8,8v100.7c0,26,12.9,31.5,23.7,31.5c6.7,0,12.4-2.3,17.1-6.9c4.7-4.6,7.1-10.2,7.1-16.7
			c0-6.7-2.2-12.3-6.6-16.9c-4.4-4.6-10-7-16.4-7c-2.2,0-4.4,0.4-6.8,1.2c-0.2,0.1-0.4,0.1-0.6,0.1c-0.4,0-0.8-0.2-1.1-0.5
			c-0.2-0.2-0.5-0.6-0.5-1.1l0-36.4c0-4.3,3.4-7.9,7.7-8c0.7,0,1.4,0,2,0c18.5,0,33.8,6.5,47,19.8c13,13.1,19.6,29.2,19.6,47.7
			c0,19.2-6.5,34.9-19.9,48C210.9,261,194.4,267.5,175,267.5z"/>
	</g>
</g>
<linearGradient id="SVGID_6_" gradientUnits="userSpaceOnUse" x1="-906.7924" y1="14.7476" x2="-636.2876" y2="285.2524">
	<stop  offset="1.346364e-06" style="stop-color:#BD3F3F"/>
	<stop  offset="0.4544" style="stop-color:#922D2E"/>
	<stop  offset="0.811" style="stop-color:#772223"/>
	<stop  offset="1" style="stop-color:#6D1E1F"/>
</linearGradient>
<path class="st9" d="M-671.7,300h-199.6c-27.6,0-50-22.4-50-50V50c0-27.6,22.4-50,50-50h199.6c27.6,0,50,22.4,50,50v200
	C-621.7,277.6-644.1,300-671.7,300z"/>
<g>
	<g>
		<path class="st4" d="M-791.5,69.6c7.1,0,12.9-2.2,17.4-6.5c4.5-4.3,6.8-9.8,6.8-16.6c0-6.3-2.4-11.8-7.2-16.4
			c-4.8-4.6-10.5-6.9-17-6.9c-6.6,0-12.2,2.3-17,6.9c-4.8,4.6-7.2,10.1-7.2,16.4c0,6.7,2.3,12.3,6.8,16.6
			C-804.4,67.5-798.6,69.6-791.5,69.6z"/>
		<path class="st4" d="M-773.4,85.7h-33.4c-4.1,0-7.5,3.4-7.5,7.5v94.5c0,28.2-9.6,42.3-28.7,42.3c-3.2,0-6.8-0.6-10.8-1.9
			c-4.8-1.5-9.7,2-9.7,7.1v29.2c0,3.3,2.2,6.3,5.4,7.2c7.1,2,13.6,3,19.4,3c24.1,0,43-8.5,56.7-25.6c10.8-13.5,16.2-31.6,16.2-54.4
			V93.2C-765.9,89.1-769.3,85.7-773.4,85.7z"/>
	</g>
	<path class="st4" d="M-698.9,150.3c-10.9-11-23.7-17.4-38.3-19.2c-4.4-0.5-8.3,3-8.3,7.5v32.6c0,0.1,0.1,0.2,0.1,0.3v7.1
		c0,0.9,0.6,1.6,1.5,1.7l0,0c3.9,0.5,7.3,2.3,10.1,5.2c3.5,3.6,5.2,8,5.2,13.3c0,5.1-1.8,9.4-5.5,13c-3.7,3.6-8.1,5.4-13.4,5.4
		c-12.3,0-18.5-8.6-18.5-25.8V92.5c0-3.8-3.1-7-7-7h-34.5c-3.8,0-7,3.1-7,7v100.6c0,19.8,5.2,35.9,15.5,48.3
		c6,7.2,13.5,12.9,22.7,17.1c9.2,4.2,18.6,6.3,28.3,6.3c19.2,0,35.5-6.5,48.7-19.4c13.2-12.9,19.8-28.9,19.8-47.8
		C-679.4,179.2-685.9,163.4-698.9,150.3z"/>
</g>
<linearGradient id="SVGID_7_" gradientUnits="userSpaceOnUse" x1="-306.7924" y1="14.7476" x2="-36.2876" y2="285.2524">
	<stop  offset="1.346364e-06" style="stop-color:#BD3F3F"/>
	<stop  offset="0.4544" style="stop-color:#922D2E"/>
	<stop  offset="0.811" style="stop-color:#772223"/>
	<stop  offset="1" style="stop-color:#6D1E1F"/>
</linearGradient>
<path class="st10" d="M-71.7,300h-199.6c-27.6,0-50-22.4-50-50V50c0-27.6,22.4-50,50-50h199.6c27.6,0,50,22.4,50,50v200
	C-21.7,277.6-44.1,300-71.7,300z"/>
<g>
	<g>
		<path class="st4" d="M-191.7,67.6c-6.1,0-10.9-1.9-14.7-5.7c-3.7-3.8-5.6-8.5-5.6-14.4c0-5.5,2-10.2,6-14.2
			c4.1-4.1,8.7-6.1,14.3-6.1s10.2,2,14.3,6.1c4,4.1,6,8.7,6,14.2c0,5.9-1.8,10.7-5.6,14.4C-180.9,65.7-185.7,67.6-191.7,67.6z"/>
		<path class="st4" d="M-239,272.9c-5.5,0-11.6-1-18.3-2.8c-1.5-0.4-2.5-1.8-2.5-3.4v-29.2c0-2.1,1.8-3.4,3.5-3.4
			c0.4,0,0.7,0.1,1.1,0.2c4.4,1.4,8.4,2,12,2c14.9,0,32.7-8,32.7-46.3v-90c0-4.4,3.6-8,8-8h24.4c4.4,0,8,3.6,8,8v97
			c0,21.7-5.1,39.2-15.3,51.9C-198.4,265-216,272.9-239,272.9z"/>
	</g>
	<path class="st4" d="M-148,263.1c-9,0-18-2-26.6-6c-8.6-4-15.8-9.3-21.3-16c-9.7-11.6-14.6-27-14.6-45.7V99.8c0-4.4,3.6-8,8-8h24.4
		c4.4,0,8,3.6,8,8v93.8c0,24.6,12.2,29.8,22.5,29.8c6.3,0,11.8-2.2,16.2-6.5c4.5-4.3,6.7-9.7,6.7-15.9c0-6.3-2.1-11.7-6.3-16
		c-1.9-2-4-3.5-6.3-4.6c-2.6-1.2-4.3-3.8-4.3-6.7l0,0c0-0.3,0-0.5-0.1-0.7v-32.2c0-1.9,1.5-3.5,3.5-3.5c0.1,0,0.3,0,0.4,0
		c13.6,1.6,25.7,7.7,35.9,18c12.3,12.5,18.3,27,18.3,44.6c0,17.9-6.1,32.6-18.6,44.9C-114.5,257-129.9,263.1-148,263.1z"/>
</g>
</svg>
