<?xml version="1.0" encoding="utf-8"?>
<!-- Generator: Adobe Illustrator 24.0.1, SVG Export Plug-In . SVG Version: 6.00 Build 0)  -->
<svg version="1.1" id="Livello_1" xmlns="http://www.w3.org/2000/svg" xmlns:xlink="http://www.w3.org/1999/xlink" x="0px" y="0px"
	 viewBox="0 0 100 100" style="enable-background:new 0 0 100 100;" xml:space="preserve">
<style type="text/css">
	.st0{fill:#121A22;}
</style>
<g>
	<path class="st0" d="M8.6,67.6c1.1-0.9,1.9-2.1,2.9-3.2l2.8-3.3c1.9-2.2,3.7-4.4,5.5-6.6l10.9-13.4c3.7-4.4,7.4-8.8,11.2-13
		c1.9-2.1,3.9-4.2,5.8-6.3c1-1.1,2-2,3.3-2.8c1.3-0.7,2.8-1.3,4.8-1.3c2.3,0,4.2,1.9,4.3,4.2c0,2-0.5,3.5-1.2,4.8
		c-0.7,1.3-1.7,2.4-2.7,3.3c-2.1,2-4.2,3.9-6.3,5.9c-4.2,3.9-8.6,7.6-13,11.3l-13.3,11c-2.2,1.8-4.4,3.7-6.6,5.5l-3.3,2.8
		c-1.1,1-2.2,1.8-3.2,2.9c-0.5,0.6-1.4,0.7-2,0.2c-0.6-0.5-0.7-1.4-0.2-2C8.5,67.7,8.5,67.6,8.6,67.6z"/>
</g>
<g>
	<path class="st0" d="M59.7,17.5l-0.6-0.3l-0.5-0.3c-0.3-0.2-0.6-0.4-0.9-0.6L57,15.6L56.5,15c-0.7-0.8-0.9-1.5-1-2.2
		c-0.2-1.4-0.2-2.8,0.2-4.1c0.4-1.3,1.1-2.5,2-3.4c0.9-1,1.9-1.9,3.1-2.5c1.2-0.6,2.6-0.9,4-1c1.4-0.1,2.8-0.1,4-0.1
		c2.5,0,4.7,0.2,6.8,0.5c0,0,0.1,0,0.1,0.1c0,0,0,0,0,0c-1.7,1.1-3.1,2.8-4,4.5c-0.4,0.9-0.7,2-0.8,3c-0.1,1-0.2,2-0.3,2.7
		c-0.1,0.7-0.4,1.3-0.6,1.9c-0.2,0.6-0.6,1-1.1,1.4c-0.6,0.4-1.4,0.7-2.2,1.1c-0.4,0.2-1,0.4-1.9,0.5l-0.7,0.1L63,17.6l-1.1,0.1
		l-0.6,0l-0.7,0l-0.1,0C60.3,17.8,60,17.7,59.7,17.5z"/>
</g>
<g id="XMLID_2_">
	<g>
		<path class="st0" d="M74.4,6.9c0.1-0.1,0.1-0.2,0.2-0.3c0.9,0.5,1.9,1.1,2.8,1.6c2.2,1.4,4.2,3,6.1,4.8c1.9,1.7,3.7,3.6,5.3,5.6
			c1.3,1.9,3.4,4.2,4.3,6.3c0.5,1.1,1.2,2.2,1.9,3.4c0.6,1.2,1.2,2.4,1.5,3.5c0.4,1.2,1.3,2.5,1.2,3.6c1,1.4,1.1,2.6,1.1,3.8
			c0.9,2.6,1.8,5.3,1.1,7.7c0.2,2.6,0.1,5.2-0.2,7.9c-0.3,2.7-0.8,5.3-1.5,8c-0.7,2.7-0.7,5.5-2.7,7.6c-0.7,2.5-3.3,4.5-3.8,6.9
			c-2.5,1.9-4.1,4-4.8,6.1c-1.2,0.9-1.8,1.9-2.5,2.8c-1.3,0.8-1.4,1.8-3.1,2.5c-2.5,0.4-2.6,1.4-3.8,2.1c-2.1,0.5-1.9,1.5-2.5,2.2
			c-0.4,0.8-1.4,1.5-3.4,1.8c-0.3,0.8-0.9,1.4-3.5,1.5c-1.2,0.5-3.7,0.5-3.6,1.3c-0.2,0.7-1.9,0.9-3.7,1c-0.8,0.1-0.2,0.6-2.1,0.3
			c0.6,0.4-1.5,0.2-2.2,0.2c-2.4-0.1-1.6,0.6-3.4,0.5c0.9,0.5-1.2,0.2-2.7,0.1c2,0,3.8-0.2-0.1-1.9c1-0.5-0.4-1.8,0.7-2.6
			c2.6,0.4,2.5,0.2,0.8-0.6c0.3-0.2-1.4-0.9-2.6-1.5c2.8,0.2,0.2-1.1,2.2-1.2c1.3-0.2,0.5-1,1.2-1.3c1.8,0.3,1.7,0.1,3.2,0.3
			c-1.1-0.5,1-0.2,0-0.7c1.7-0.1,3.8-0.1,3.9-0.7c1.5-0.2,2.5-0.7,3.7-1.1c-0.2-0.7,2.5-0.6,3-1.2c1.4-0.3,1.7-1,2.9-1.4
			c1.4-0.4,1.3-1.2,2.9-1.6c0.6-0.7,1.8-1.2,2.5-1.9c0.4-0.8,0.9-1.6,1.6-2.3c0.7-0.7,1.7-1.4,3.2-2c1.5-1.6,2.9-3.3,4.1-5.1
			c0.4-2,1.1-4.1,3.3-5.8c1.4-1.9,1.7-4.2,2.3-6.5c0.3-1.1,0.5-2.3,0.8-3.4c-1.5-1.6,1.7-1.9,0.5-3.4c1-0.9,0.5-2.1,0.2-3.4
			c0.9-0.9-0.7-2.4-0.1-3.3c-0.1-1.1,0.7-1.9-1-3.4c-0.5-1.2-2.2-2.6,0-3.1c-1.9-1.5-0.2-2-1.3-3.3c1.7-0.5,0-1.8-0.7-2.9
			c0.9-0.6-1.2-2.1-1.2-2.9c-0.6-1-0.5-1.7-1.7-2.9c0.7-0.6-0.4-1.6-1.1-2.5c-0.8-0.9-1.8-1.8-2.7-2.7c-0.9-1-1.3-1.8-2-2.6
			c-0.7-0.8-1.7-1.7-3.7-2.7c0.1-0.5-1.9-1.5-2.5-2.1c-0.2-0.1-0.3-0.1-0.5-0.2c0.7-1.1,1.2-2.2,1.1-3.3c0.2-1.2,0.3-2.3,0.5-3.2
			C73.7,8.3,73.9,7.5,74.4,6.9z"/>
		<path class="st0" d="M69.9,22c1.7,0.8,2.6,1.5,2.6,2c0.9,0.8,1.9,1.7,2.8,2.7c2,1.2,1.9,2,2.4,2.9c-1,1,1.1,3,3.1,5.1
			c1.8,2,1.6,3.7,2.2,5.6c-0.3,1.7,1.4,4.1,1.2,6c0.2,2-0.5,3.9,0.1,6.2c0.1,2.2-0.5,4.2-1.1,6.3c-0.3,1-0.6,2.1-1,3.1
			c-0.4,1-0.8,2-1.2,2.9c-0.9,1.9-2.3,3.6-3.2,5.3c-0.5,1.8-3.2,3-4,4.6c-1.5,1.4-3,2.7-4.7,3.8c-1.7,1.1-3.4,2.1-5.3,2.9
			c-1.2,0.5-2.3,0.9-3.5,1.3c-4.1-0.4-1.5,1-3.7,0.9c-0.6-0.1-1.1-0.2-1.5-0.2c-1.6-0.8-2.2-1.4-1.7-1.7c1.2-0.1-1.3-1.2,1.9-0.7
			c1.1-0.1,2.7-0.1-0.3-1.3c3.5,0.5,1.7-0.4,0-1.3c-0.1-0.2-0.3-0.4-0.4-0.6c2.7,0.2,3.2-0.2,2.8-0.9c1.2-0.3,2.3-0.7,3.4-1.2
			c0.3-0.7,3.1-0.7,3.2-1.6c2.9-0.5,0.9-2.5,4.4-3.1c2.2-0.9,2.8-2.4,3.7-3.9c-0.6-1.9,1.5-3.1,2.9-4.6c0.4-0.8,0.8-1.7,1.1-2.6
			c0.3-0.9,1.2-1.6,0.9-2.7c0-2-1.4-4.3,0.9-5.6c1.3-1.5-0.1-3.7-0.2-5.5c-0.7-1.9-0.7-3.6-1.3-5.2c1.4-1.2-1.4-3.3-2.2-4.9
			c-1.1-1.2-1-2-2-3c-1.1-1.1-0.4-1.5-2.3-2.7c-0.7-0.3-1.2-0.6-1.5-0.8c0.1-0.4,0.3-0.9,0.4-1.3c0.4-0.9,0.8-1.7,1.1-2.5
			C70.5,24.7,69.8,23.2,69.9,22z"/>
	</g>
	<g>
	</g>
</g>
</svg>
