<?xml version="1.0" encoding="utf-8"?>
<!-- Generator: Adobe Illustrator 24.0.1, SVG Export Plug-In . SVG Version: 6.00 Build 0)  -->
<svg version="1.1" id="Livello_1" xmlns="http://www.w3.org/2000/svg" xmlns:xlink="http://www.w3.org/1999/xlink" x="0px" y="0px"
	 viewBox="0 0 100 100" style="enable-background:new 0 0 100 100;" xml:space="preserve">
<style type="text/css">
	.st0{fill:#121A22;}
</style>
<g>
	<path class="st0" d="M2.2,50.1l6.8-6.8l1.1-1L42.4,9.9c2.1-2.1,4.9-3.2,7.8-3.2c2.4,0,4.8,0.8,6.7,2.3L15.7,50.1L38,72.5l-6.8,6.8
		L2.2,50.1z"/>
	<path class="st0" d="M50.3,8.2c1.5,0,3,0.4,4.3,1L15.7,48l-2.1,2.1l2.1,2.1l20.2,20.2l-4.6,4.6l-27-27l4.6-4.6l0,0l2.1-2.1L43.5,11
		C45.3,9.1,47.7,8.2,50.3,8.2 M50.3,5.2c-3.2,0-6.4,1.2-8.9,3.7L8.9,41.3l0,0l-8.9,8.9l31.2,31.2l8.9-8.9L17.8,50.1L59.1,8.8l0,0
		C56.7,6.4,53.5,5.2,50.3,5.2L50.3,5.2z"/>
</g>
<g>
	<path class="st0" d="M50.1,93.5c-2.5,0-4.8-0.8-6.7-2.2L84.6,50L62.2,27.5l6.8-6.8L98.2,50l-6.8,6.8l-1.1,1L57.9,90.2
		C55.8,92.3,53.1,93.5,50.1,93.5z"/>
	<path class="st0" d="M69,22.9L96.1,50l-4.6,4.6l0,0l-2.1,2.1L56.9,89.2C55.1,91,52.7,92,50.1,92c-1.5,0-3-0.3-4.3-1l38.9-38.9
		l2.1-2.1l-2.1-2.1L64.3,27.5L69,22.9 M69,18.6l-8.9,8.9L82.5,50L41.2,91.3l0,0c2.4,2.4,5.7,3.7,8.9,3.7s6.4-1.2,8.9-3.7l32.4-32.4
		l0,0l8.9-8.9L69,18.6L69,18.6z"/>
</g>
</svg>
