<?xml version="1.0" encoding="utf-8"?>
<!-- Generator: Adobe Illustrator 24.0.1, SVG Export Plug-In . SVG Version: 6.00 Build 0)  -->
<svg version="1.1" id="Livello_1" xmlns="http://www.w3.org/2000/svg" xmlns:xlink="http://www.w3.org/1999/xlink" x="0px" y="0px"
	 viewBox="0 0 100 100" style="enable-background:new 0 0 100 100;" xml:space="preserve">
<style type="text/css">
	.st0{fill:#121A22;}
</style>
<g>
	<path class="st0" d="M51.9,7.5L51.9,7.5L51.9,7.5 M50.2,8.6l37.1,23.6c-1.8,1.8-3,4.2-3,6.9v53.2H72.6V69.2
		c0-7.1-6.1-12.9-13.7-12.9H41.4c-7.6,0-13.7,5.8-13.7,12.9v23.1H16V39.1c0-2.7-1.1-5.1-3-6.9L50.2,8.6 M50.2,1
		c-0.7,0-1.4,0.2-2,0.6L2.1,30.9c-2.7,1.7-1.3,5.4,2,5.4h1.7c1.8,0,3.2,1.3,3.2,2.8v54.4c0,3.2,3,5.8,6.6,5.8h15.9
		c1.9,0,3.2-1.4,3.2-3c0,0,0,0,0-0.1V69.2c0-3.2,3-5.9,6.7-5.9h17.5c3.7,0,6.7,2.6,6.7,5.9v27.1c0,0,0,0,0,0.1c0,1.6,1.3,3,3.2,3
		h15.9c3.7,0,6.6-2.6,6.6-5.8V39.1c0-1.6,1.4-2.8,3.2-2.8h1.7c3.3,0,4.7-3.7,2-5.4L52.2,1.6C51.6,1.2,50.9,1,50.2,1L50.2,1z"/>
</g>
<g>
	<path class="st0" d="M50.2,36.3c-2.5,0-4.5,2-4.5,4.5s2,4.5,4.5,4.5s4.5-2,4.5-4.5S52.7,36.3,50.2,36.3L50.2,36.3z"/>
</g>
</svg>
